<svg width="48" height="48" viewBox="0 0 48 48" fill="none" xmlns="http://www.w3.org/2000/svg">
<circle cx="24" cy="24" r="24" fill="#0E8920"/>
<path fill-rule="evenodd" clip-rule="evenodd" d="M24.4 35.5H14C13.4477 35.5 13 35.0523 13 34.5V14C13 13.4477 13.4477 13 14 13H34.5C35.0523 13 35.5 13.4477 35.5 14V34.5C35.5 35.0523 35.0523 35.5 34.5 35.5H28.4V27H30.96C31.2143 27.0018 31.4295 26.8125 31.46 26.56L31.84 23.56C31.8572 23.4173 31.8123 23.2742 31.7166 23.167C31.6209 23.0598 31.4837 22.999 31.34 23H28.4V21.94C28.4 21.4918 28.5781 21.0619 28.895 20.745C29.2119 20.4281 29.6418 20.25 30.09 20.25H31.9C32.1761 20.25 32.4 20.0261 32.4 19.75V16.75C32.4 16.4739 32.1761 16.25 31.9 16.25H30.09C26.9475 16.25 24.4 18.7975 24.4 21.94V23H21.9C21.6239 23 21.4 23.2239 21.4 23.5V26.5C21.4 26.7761 21.6239 27 21.9 27H24.4V35.5Z" stroke="white" stroke-width="2" stroke-linecap="round" stroke-linejoin="round"/>
</svg>
