<svg width="1440" height="1618" viewBox="0 0 1440 1618" fill="none" xmlns="http://www.w3.org/2000/svg">
<mask id="mask0" mask-type="alpha" maskUnits="userSpaceOnUse" x="0" y="0" width="1440" height="1618">
<rect width="1440" height="1618" fill="#C4C4C4"/>
</mask>
<g mask="url(#mask0)">
<circle cx="129.5" cy="807.5" r="246.5" fill="#F1F0F0"/>
<path fill-rule="evenodd" clip-rule="evenodd" d="M1500.09 418.871C1531.23 392.457 1551 353.037 1551 309C1551 229.471 1486.53 165 1407 165C1327.47 165 1263 229.471 1263 309C1263 313.753 1263.23 318.452 1263.68 323.087C1120.94 335.647 1009 455.501 1009 601.5C1009 755.864 1134.14 881 1288.5 881C1442.86 881 1568 755.864 1568 601.5C1568 531.688 1542.41 467.855 1500.09 418.871Z" fill="#F1F0F0"/>
<circle cx="720.5" cy="1637.5" r="1076.5" fill="url(#paint0_linear)"/>
<path fill-rule="evenodd" clip-rule="evenodd" d="M436.011 2185.17H624.99C594.26 2190.32 562.694 2193 530.5 2193C498.307 2193 466.74 2190.32 436.011 2185.17ZM-36.9465 1617.67L1097.95 1617.67C1093.76 1307.86 841.308 1058 530.5 1058C219.693 1058 -32.7565 1307.86 -36.9465 1617.67ZM1098 1624.91C1098 1625.11 1098 1625.3 1098 1625.5C1098 1625.7 1098 1625.89 1098 1626.09V1624.91Z" fill="#48D06D" fill-opacity="0.2"/>
</g>
<defs>
<linearGradient id="paint0_linear" x1="1443.5" y1="561" x2="11.5001" y2="1637" gradientUnits="userSpaceOnUse">
<stop stop-color="#26992C"/>
<stop offset="1" stop-color="#2AC768"/>
</linearGradient>
</defs>
</svg>
