<svg width="147" height="35" viewBox="0 0 147 35" fill="none" xmlns="http://www.w3.org/2000/svg">
<path fill-rule="evenodd" clip-rule="evenodd" d="M2.06075 34.293C0.927336 34.293 0 33.3384 0 32.1717C0 31.0051 0.927336 30.0505 2.06075 30.0505C3.19416 30.0505 4.1215 31.0051 4.1215 32.1717C4.1215 33.3384 3.19416 34.293 2.06075 34.293Z" fill="white" fill-opacity="0.95"/>
<path fill-rule="evenodd" clip-rule="evenodd" d="M2.06075 34.293C0.927336 34.293 0 33.3384 0 32.1717C0 31.0051 0.927336 30.0505 2.06075 30.0505C3.19416 30.0505 4.1215 31.0051 4.1215 32.1717C4.1215 33.3384 3.19416 34.293 2.06075 34.293Z" fill="url(#paint0_linear)"/>
<path fill-rule="evenodd" clip-rule="evenodd" d="M2.06075 28.2827C0.927336 28.2827 0 27.3282 0 26.1615C0 24.9948 0.927336 24.0403 2.06075 24.0403C3.19416 24.0403 4.1215 24.9948 4.1215 26.1615C4.1215 27.3282 3.19416 28.2827 2.06075 28.2827Z" fill="white" fill-opacity="0.95"/>
<path fill-rule="evenodd" clip-rule="evenodd" d="M2.06075 28.2827C0.927336 28.2827 0 27.3282 0 26.1615C0 24.9948 0.927336 24.0403 2.06075 24.0403C3.19416 24.0403 4.1215 24.9948 4.1215 26.1615C4.1215 27.3282 3.19416 28.2827 2.06075 28.2827Z" fill="url(#paint1_linear)"/>
<path fill-rule="evenodd" clip-rule="evenodd" d="M17.1729 28.2827C16.0395 28.2827 15.1122 27.3282 15.1122 26.1615C15.1122 24.9948 16.0395 24.0403 17.1729 24.0403C18.3063 24.0403 19.2337 24.9948 19.2337 26.1615C19.2337 27.3282 18.3063 28.2827 17.1729 28.2827Z" fill="white" fill-opacity="0.95"/>
<path fill-rule="evenodd" clip-rule="evenodd" d="M17.1729 28.2827C16.0395 28.2827 15.1122 27.3282 15.1122 26.1615C15.1122 24.9948 16.0395 24.0403 17.1729 24.0403C18.3063 24.0403 19.2337 24.9948 19.2337 26.1615C19.2337 27.3282 18.3063 28.2827 17.1729 28.2827Z" fill="url(#paint2_linear)"/>
<path fill-rule="evenodd" clip-rule="evenodd" d="M17.1729 22.2727C16.0395 22.2727 15.1122 21.3182 15.1122 20.1515C15.1122 18.9848 16.0395 18.0303 17.1729 18.0303C18.3063 18.0303 19.2337 18.9848 19.2337 20.1515C19.2337 21.3182 18.3063 22.2727 17.1729 22.2727Z" fill="white" fill-opacity="0.95"/>
<path fill-rule="evenodd" clip-rule="evenodd" d="M17.1729 22.2727C16.0395 22.2727 15.1122 21.3182 15.1122 20.1515C15.1122 18.9848 16.0395 18.0303 17.1729 18.0303C18.3063 18.0303 19.2337 18.9848 19.2337 20.1515C19.2337 21.3182 18.3063 22.2727 17.1729 22.2727Z" fill="url(#paint3_linear)"/>
<path fill-rule="evenodd" clip-rule="evenodd" d="M24.3855 28.2827C23.252 28.2827 22.3247 27.3282 22.3247 26.1615C22.3247 24.9948 23.252 24.0403 24.3855 24.0403C25.5189 24.0403 26.4462 24.9948 26.4462 26.1615C26.4462 27.3282 25.5189 28.2827 24.3855 28.2827Z" fill="white" fill-opacity="0.95"/>
<path fill-rule="evenodd" clip-rule="evenodd" d="M24.3855 28.2827C23.252 28.2827 22.3247 27.3282 22.3247 26.1615C22.3247 24.9948 23.252 24.0403 24.3855 24.0403C25.5189 24.0403 26.4462 24.9948 26.4462 26.1615C26.4462 27.3282 25.5189 28.2827 24.3855 28.2827Z" fill="url(#paint4_linear)"/>
<path fill-rule="evenodd" clip-rule="evenodd" d="M24.3855 22.2727C23.252 22.2727 22.3247 21.3182 22.3247 20.1515C22.3247 18.9848 23.252 18.0303 24.3855 18.0303C25.5189 18.0303 26.4462 18.9848 26.4462 20.1515C26.4462 21.3182 25.5189 22.2727 24.3855 22.2727Z" fill="white" fill-opacity="0.95"/>
<path fill-rule="evenodd" clip-rule="evenodd" d="M24.3855 22.2727C23.252 22.2727 22.3247 21.3182 22.3247 20.1515C22.3247 18.9848 23.252 18.0303 24.3855 18.0303C25.5189 18.0303 26.4462 18.9848 26.4462 20.1515C26.4462 21.3182 25.5189 22.2727 24.3855 22.2727Z" fill="url(#paint5_linear)"/>
<path fill-rule="evenodd" clip-rule="evenodd" d="M24.3855 16.2627C23.252 16.2627 22.3247 15.3081 22.3247 14.1415C22.3247 12.9748 23.252 12.0203 24.3855 12.0203C25.5189 12.0203 26.4462 12.9748 26.4462 14.1415C26.4462 15.3081 25.5189 16.2627 24.3855 16.2627Z" fill="white" fill-opacity="0.95"/>
<path fill-rule="evenodd" clip-rule="evenodd" d="M24.3855 16.2627C23.252 16.2627 22.3247 15.3081 22.3247 14.1415C22.3247 12.9748 23.252 12.0203 24.3855 12.0203C25.5189 12.0203 26.4462 12.9748 26.4462 14.1415C26.4462 15.3081 25.5189 16.2627 24.3855 16.2627Z" fill="url(#paint6_linear)"/>
<path fill-rule="evenodd" clip-rule="evenodd" d="M31.9416 28.2827C30.8082 28.2827 29.8809 27.3282 29.8809 26.1615C29.8809 24.9948 30.8082 24.0403 31.9416 24.0403C33.075 24.0403 34.0024 24.9948 34.0024 26.1615C34.0024 27.3282 33.075 28.2827 31.9416 28.2827Z" fill="white" fill-opacity="0.95"/>
<path fill-rule="evenodd" clip-rule="evenodd" d="M31.9416 28.2827C30.8082 28.2827 29.8809 27.3282 29.8809 26.1615C29.8809 24.9948 30.8082 24.0403 31.9416 24.0403C33.075 24.0403 34.0024 24.9948 34.0024 26.1615C34.0024 27.3282 33.075 28.2827 31.9416 28.2827Z" fill="url(#paint7_linear)"/>
<path fill-rule="evenodd" clip-rule="evenodd" d="M31.9416 22.2727C30.8082 22.2727 29.8809 21.3182 29.8809 20.1515C29.8809 18.9848 30.8082 18.0303 31.9416 18.0303C33.075 18.0303 34.0024 18.9848 34.0024 20.1515C34.0024 21.3182 33.075 22.2727 31.9416 22.2727Z" fill="white" fill-opacity="0.95"/>
<path fill-rule="evenodd" clip-rule="evenodd" d="M31.9416 22.2727C30.8082 22.2727 29.8809 21.3182 29.8809 20.1515C29.8809 18.9848 30.8082 18.0303 31.9416 18.0303C33.075 18.0303 34.0024 18.9848 34.0024 20.1515C34.0024 21.3182 33.075 22.2727 31.9416 22.2727Z" fill="url(#paint8_linear)"/>
<path fill-rule="evenodd" clip-rule="evenodd" d="M39.4976 28.2827C38.3642 28.2827 37.4369 27.3282 37.4369 26.1615C37.4369 24.9948 38.3642 24.0403 39.4976 24.0403C40.631 24.0403 41.5584 24.9948 41.5584 26.1615C41.5584 27.3282 40.631 28.2827 39.4976 28.2827Z" fill="white" fill-opacity="0.95"/>
<path fill-rule="evenodd" clip-rule="evenodd" d="M39.4976 28.2827C38.3642 28.2827 37.4369 27.3282 37.4369 26.1615C37.4369 24.9948 38.3642 24.0403 39.4976 24.0403C40.631 24.0403 41.5584 24.9948 41.5584 26.1615C41.5584 27.3282 40.631 28.2827 39.4976 28.2827Z" fill="url(#paint9_linear)"/>
<path fill-rule="evenodd" clip-rule="evenodd" d="M54.2663 28.2827C53.1329 28.2827 52.2056 27.3282 52.2056 26.1615C52.2056 24.9948 53.1329 24.0403 54.2663 24.0403C55.3997 24.0403 56.3271 24.9948 56.3271 26.1615C56.3271 27.3282 55.3997 28.2827 54.2663 28.2827Z" fill="white" fill-opacity="0.95"/>
<path fill-rule="evenodd" clip-rule="evenodd" d="M54.2663 28.2827C53.1329 28.2827 52.2056 27.3282 52.2056 26.1615C52.2056 24.9948 53.1329 24.0403 54.2663 24.0403C55.3997 24.0403 56.3271 24.9948 56.3271 26.1615C56.3271 27.3282 55.3997 28.2827 54.2663 28.2827Z" fill="url(#paint10_linear)"/>
<path fill-rule="evenodd" clip-rule="evenodd" d="M61.8225 28.2827C60.6891 28.2827 59.7617 27.3282 59.7617 26.1615C59.7617 24.9948 60.6891 24.0403 61.8225 24.0403C62.9559 24.0403 63.8832 24.9948 63.8832 26.1615C63.8832 27.3282 62.9559 28.2827 61.8225 28.2827Z" fill="white" fill-opacity="0.95"/>
<path fill-rule="evenodd" clip-rule="evenodd" d="M61.8225 28.2827C60.6891 28.2827 59.7617 27.3282 59.7617 26.1615C59.7617 24.9948 60.6891 24.0403 61.8225 24.0403C62.9559 24.0403 63.8832 24.9948 63.8832 26.1615C63.8832 27.3282 62.9559 28.2827 61.8225 28.2827Z" fill="url(#paint11_linear)"/>
<path fill-rule="evenodd" clip-rule="evenodd" d="M61.8225 22.2727C60.6891 22.2727 59.7617 21.3182 59.7617 20.1515C59.7617 18.9848 60.6891 18.0303 61.8225 18.0303C62.9559 18.0303 63.8832 18.9848 63.8832 20.1515C63.8832 21.3182 62.9559 22.2727 61.8225 22.2727Z" fill="white" fill-opacity="0.95"/>
<path fill-rule="evenodd" clip-rule="evenodd" d="M61.8225 22.2727C60.6891 22.2727 59.7617 21.3182 59.7617 20.1515C59.7617 18.9848 60.6891 18.0303 61.8225 18.0303C62.9559 18.0303 63.8832 18.9848 63.8832 20.1515C63.8832 21.3182 62.9559 22.2727 61.8225 22.2727Z" fill="url(#paint12_linear)"/>
<path fill-rule="evenodd" clip-rule="evenodd" d="M39.4976 22.2727C38.3642 22.2727 37.4369 21.3182 37.4369 20.1515C37.4369 18.9848 38.3642 18.0303 39.4976 18.0303C40.631 18.0303 41.5584 18.9848 41.5584 20.1515C41.5584 21.3182 40.631 22.2727 39.4976 22.2727Z" fill="white" fill-opacity="0.95"/>
<path fill-rule="evenodd" clip-rule="evenodd" d="M39.4976 22.2727C38.3642 22.2727 37.4369 21.3182 37.4369 20.1515C37.4369 18.9848 38.3642 18.0303 39.4976 18.0303C40.631 18.0303 41.5584 18.9848 41.5584 20.1515C41.5584 21.3182 40.631 22.2727 39.4976 22.2727Z" fill="url(#paint13_linear)"/>
<path fill-rule="evenodd" clip-rule="evenodd" d="M31.9416 16.2627C30.8082 16.2627 29.8809 15.3081 29.8809 14.1415C29.8809 12.9748 30.8082 12.0203 31.9416 12.0203C33.075 12.0203 34.0024 12.9748 34.0024 14.1415C34.0024 15.3081 33.075 16.2627 31.9416 16.2627Z" fill="white" fill-opacity="0.95"/>
<path fill-rule="evenodd" clip-rule="evenodd" d="M31.9416 16.2627C30.8082 16.2627 29.8809 15.3081 29.8809 14.1415C29.8809 12.9748 30.8082 12.0203 31.9416 12.0203C33.075 12.0203 34.0024 12.9748 34.0024 14.1415C34.0024 15.3081 33.075 16.2627 31.9416 16.2627Z" fill="url(#paint14_linear)"/>
<path fill-rule="evenodd" clip-rule="evenodd" d="M31.9416 10.2524C30.8082 10.2524 29.8809 9.29789 29.8809 8.13122C29.8809 6.96456 30.8082 6.01001 31.9416 6.01001C33.075 6.01001 34.0024 6.96456 34.0024 8.13122C34.0024 9.29789 33.075 10.2524 31.9416 10.2524Z" fill="white" fill-opacity="0.95"/>
<path fill-rule="evenodd" clip-rule="evenodd" d="M31.9416 10.2524C30.8082 10.2524 29.8809 9.29789 29.8809 8.13122C29.8809 6.96456 30.8082 6.01001 31.9416 6.01001C33.075 6.01001 34.0024 6.96456 34.0024 8.13122C34.0024 9.29789 33.075 10.2524 31.9416 10.2524Z" fill="url(#paint15_linear)"/>
<path fill-rule="evenodd" clip-rule="evenodd" d="M31.9416 4.24242C30.8082 4.24242 29.8809 3.28788 29.8809 2.12121C29.8809 0.954546 30.8082 0 31.9416 0C33.075 0 34.0024 0.954546 34.0024 2.12121C34.0024 3.28788 33.075 4.24242 31.9416 4.24242Z" fill="white" fill-opacity="0.95"/>
<path fill-rule="evenodd" clip-rule="evenodd" d="M31.9416 4.24242C30.8082 4.24242 29.8809 3.28788 29.8809 2.12121C29.8809 0.954546 30.8082 0 31.9416 0C33.075 0 34.0024 0.954546 34.0024 2.12121C34.0024 3.28788 33.075 4.24242 31.9416 4.24242Z" fill="url(#paint16_linear)"/>
<path fill-rule="evenodd" clip-rule="evenodd" d="M9.61678 34.293C8.48337 34.293 7.55603 33.3384 7.55603 32.1717C7.55603 31.0051 8.48337 30.0505 9.61678 30.0505C10.7502 30.0505 11.6775 31.0051 11.6775 32.1717C11.6775 33.3384 10.7502 34.293 9.61678 34.293Z" fill="white" fill-opacity="0.95"/>
<path fill-rule="evenodd" clip-rule="evenodd" d="M9.61678 34.293C8.48337 34.293 7.55603 33.3384 7.55603 32.1717C7.55603 31.0051 8.48337 30.0505 9.61678 30.0505C10.7502 30.0505 11.6775 31.0051 11.6775 32.1717C11.6775 33.3384 10.7502 34.293 9.61678 34.293Z" fill="url(#paint17_linear)"/>
<path fill-rule="evenodd" clip-rule="evenodd" d="M17.1729 34.293C16.0395 34.293 15.1122 33.3384 15.1122 32.1717C15.1122 31.0051 16.0395 30.0505 17.1729 30.0505C18.3063 30.0505 19.2337 31.0051 19.2337 32.1717C19.2337 33.3384 18.3063 34.293 17.1729 34.293Z" fill="white" fill-opacity="0.95"/>
<path fill-rule="evenodd" clip-rule="evenodd" d="M17.1729 34.293C16.0395 34.293 15.1122 33.3384 15.1122 32.1717C15.1122 31.0051 16.0395 30.0505 17.1729 30.0505C18.3063 30.0505 19.2337 31.0051 19.2337 32.1717C19.2337 33.3384 18.3063 34.293 17.1729 34.293Z" fill="url(#paint18_linear)"/>
<path fill-rule="evenodd" clip-rule="evenodd" d="M24.3855 34.293C23.252 34.293 22.3247 33.3384 22.3247 32.1717C22.3247 31.0051 23.252 30.0505 24.3855 30.0505C25.5189 30.0505 26.4462 31.0051 26.4462 32.1717C26.4462 33.3384 25.5189 34.293 24.3855 34.293Z" fill="white" fill-opacity="0.95"/>
<path fill-rule="evenodd" clip-rule="evenodd" d="M24.3855 34.293C23.252 34.293 22.3247 33.3384 22.3247 32.1717C22.3247 31.0051 23.252 30.0505 24.3855 30.0505C25.5189 30.0505 26.4462 31.0051 26.4462 32.1717C26.4462 33.3384 25.5189 34.293 24.3855 34.293Z" fill="url(#paint19_linear)"/>
<path fill-rule="evenodd" clip-rule="evenodd" d="M31.9416 34.293C30.8082 34.293 29.8809 33.3384 29.8809 32.1717C29.8809 31.0051 30.8082 30.0505 31.9416 30.0505C33.075 30.0505 34.0024 31.0051 34.0024 32.1717C34.0024 33.3384 33.075 34.293 31.9416 34.293Z" fill="white" fill-opacity="0.95"/>
<path fill-rule="evenodd" clip-rule="evenodd" d="M31.9416 34.293C30.8082 34.293 29.8809 33.3384 29.8809 32.1717C29.8809 31.0051 30.8082 30.0505 31.9416 30.0505C33.075 30.0505 34.0024 31.0051 34.0024 32.1717C34.0024 33.3384 33.075 34.293 31.9416 34.293Z" fill="url(#paint20_linear)"/>
<path fill-rule="evenodd" clip-rule="evenodd" d="M39.4976 34.293C38.3642 34.293 37.4369 33.3384 37.4369 32.1717C37.4369 31.0051 38.3642 30.0505 39.4976 30.0505C40.631 30.0505 41.5584 31.0051 41.5584 32.1717C41.5584 33.3384 40.631 34.293 39.4976 34.293Z" fill="white" fill-opacity="0.95"/>
<path fill-rule="evenodd" clip-rule="evenodd" d="M39.4976 34.293C38.3642 34.293 37.4369 33.3384 37.4369 32.1717C37.4369 31.0051 38.3642 30.0505 39.4976 30.0505C40.631 30.0505 41.5584 31.0051 41.5584 32.1717C41.5584 33.3384 40.631 34.293 39.4976 34.293Z" fill="url(#paint21_linear)"/>
<path fill-rule="evenodd" clip-rule="evenodd" d="M46.7103 34.293C45.5769 34.293 44.6495 33.3384 44.6495 32.1717C44.6495 31.0051 45.5769 30.0505 46.7103 30.0505C47.8437 30.0505 48.771 31.0051 48.771 32.1717C48.771 33.3384 47.8437 34.293 46.7103 34.293Z" fill="white" fill-opacity="0.95"/>
<path fill-rule="evenodd" clip-rule="evenodd" d="M46.7103 34.293C45.5769 34.293 44.6495 33.3384 44.6495 32.1717C44.6495 31.0051 45.5769 30.0505 46.7103 30.0505C47.8437 30.0505 48.771 31.0051 48.771 32.1717C48.771 33.3384 47.8437 34.293 46.7103 34.293Z" fill="url(#paint22_linear)"/>
<path fill-rule="evenodd" clip-rule="evenodd" d="M54.2663 34.293C53.1329 34.293 52.2056 33.3384 52.2056 32.1717C52.2056 31.0051 53.1329 30.0505 54.2663 30.0505C55.3997 30.0505 56.3271 31.0051 56.3271 32.1717C56.3271 33.3384 55.3997 34.293 54.2663 34.293Z" fill="white" fill-opacity="0.95"/>
<path fill-rule="evenodd" clip-rule="evenodd" d="M54.2663 34.293C53.1329 34.293 52.2056 33.3384 52.2056 32.1717C52.2056 31.0051 53.1329 30.0505 54.2663 30.0505C55.3997 30.0505 56.3271 31.0051 56.3271 32.1717C56.3271 33.3384 55.3997 34.293 54.2663 34.293Z" fill="url(#paint23_linear)"/>
<path fill-rule="evenodd" clip-rule="evenodd" d="M61.8225 34.293C60.6891 34.293 59.7617 33.3384 59.7617 32.1717C59.7617 31.0051 60.6891 30.0505 61.8225 30.0505C62.9559 30.0505 63.8832 31.0051 63.8832 32.1717C63.8832 33.3384 62.9559 34.293 61.8225 34.293Z" fill="white" fill-opacity="0.95"/>
<path fill-rule="evenodd" clip-rule="evenodd" d="M61.8225 34.293C60.6891 34.293 59.7617 33.3384 59.7617 32.1717C59.7617 31.0051 60.6891 30.0505 61.8225 30.0505C62.9559 30.0505 63.8832 31.0051 63.8832 32.1717C63.8832 33.3384 62.9559 34.293 61.8225 34.293Z" fill="url(#paint24_linear)"/>
<path d="M78.9383 29.3434L75.6833 24.2071L78.6903 20.5845H76.3606L73.3368 24.4792L73.3038 24.4622V16.5876H71.3046V29.3434H73.3038V27.0644L74.3449 25.8228L76.4928 29.3434H78.9383ZM82.0294 20.5845H80.1953V29.3434H82.2111V23.4417C82.6243 22.6934 83.2356 22.2682 83.9624 22.2682C84.2766 22.2682 84.5243 22.3192 84.7722 22.4553L85.2184 20.5335C84.9045 20.4314 84.5905 20.3804 84.1939 20.3804C83.318 20.3804 82.6407 20.9757 82.1286 21.826L82.0294 20.5845ZM93.8464 25.4827C93.8958 25.1595 93.9288 24.7683 93.9288 24.4452C93.9288 22.0981 92.227 20.3804 89.9138 20.3804C87.5014 20.3804 85.6343 22.3873 85.6343 25.0235C85.6343 27.6257 87.2867 29.5475 89.9138 29.5475C91.6819 29.5475 92.7889 28.8672 93.7307 27.4386L92.3757 26.5031C91.8471 27.4216 91.1365 27.8638 90.0295 27.8638C88.6416 27.8638 87.7823 26.7923 87.6501 25.4827H93.8464ZM91.8801 24.003H87.7658C88.0303 22.8805 88.7409 22.0301 89.9633 22.0301C91.0208 22.0301 91.8306 22.8635 91.8801 24.003ZM103.829 16.5876H101.813V21.4859C101.152 20.7375 100.144 20.3804 99.2686 20.3804C96.8231 20.3804 95.1543 22.5403 95.1543 24.9384C95.1543 27.4896 96.8894 29.5475 99.2356 29.5475C100.177 29.5475 101.284 29.1733 101.896 28.2209L101.995 29.3434H103.829V16.5876ZM101.813 26.3841C101.334 27.3365 100.409 27.7447 99.6154 27.7447C98.1121 27.7447 97.1869 26.4181 97.1869 24.9894C97.1869 23.6458 97.9799 22.1832 99.6488 22.1832C100.425 22.1832 101.235 22.5233 101.813 23.2887V26.3841ZM111.871 21.4519C111.127 20.7376 110.119 20.3804 109.062 20.3804C107.559 20.3804 106.137 21.2478 106.137 23.0336C106.137 24.5983 107.426 25.1935 108.434 25.6187C109.194 25.9419 110.021 26.282 110.021 26.8943C110.021 27.5916 109.359 27.8978 108.748 27.8978C107.988 27.8978 107.41 27.5406 106.799 26.9113L105.576 28.1019C106.402 29.0373 107.542 29.5475 108.798 29.5475C110.45 29.5475 112.003 28.6971 112.003 26.7583C112.003 25.1425 110.615 24.5472 109.525 24.105C108.764 23.7819 108.054 23.4758 108.054 22.8805C108.054 22.3533 108.484 22.0301 109.062 22.0301C109.69 22.0301 110.334 22.3362 110.747 22.7104L111.871 21.4519ZM119.567 27.0984C119.088 27.5236 118.476 27.7447 117.865 27.7447C116.543 27.7447 115.436 26.5882 115.436 24.9554C115.436 23.4247 116.494 22.1832 117.882 22.1832C118.509 22.1832 119.088 22.4213 119.567 22.8465L120.558 21.3158C119.798 20.7205 118.856 20.3804 117.815 20.3804C115.254 20.3804 113.404 22.4043 113.404 24.9554C113.404 27.6937 115.254 29.5475 117.733 29.5475C118.873 29.5475 119.864 29.2243 120.608 28.5611L119.567 27.0984ZM126.012 20.3804C123.468 20.3804 121.601 22.4043 121.601 24.9554C121.601 27.5236 123.468 29.5475 126.012 29.5475C128.557 29.5475 130.424 27.5236 130.424 24.9554C130.424 22.4043 128.557 20.3804 126.012 20.3804ZM128.392 24.9554C128.392 26.5031 127.4 27.7447 126.012 27.7447C124.624 27.7447 123.633 26.5031 123.633 24.9554C123.633 23.4247 124.624 22.1832 126.012 22.1832C127.4 22.1832 128.392 23.4247 128.392 24.9554ZM134.115 20.5845H132.281V29.3434H134.297V23.4417C134.71 22.6934 135.321 22.2682 136.048 22.2682C136.362 22.2682 136.61 22.3192 136.858 22.4553L137.304 20.5335C136.99 20.4314 136.676 20.3804 136.28 20.3804C135.404 20.3804 134.726 20.9757 134.214 21.826L134.115 20.5845ZM145.932 25.4827C145.982 25.1595 146.015 24.7683 146.015 24.4452C146.015 22.0981 144.313 20.3804 142 20.3804C139.587 20.3804 137.72 22.3873 137.72 25.0235C137.72 27.6257 139.372 29.5475 142 29.5475C143.768 29.5475 144.875 28.8672 145.816 27.4386L144.461 26.5031C143.933 27.4216 143.222 27.8638 142.115 27.8638C140.727 27.8638 139.868 26.7923 139.736 25.4827H145.932ZM143.966 24.003H139.852C140.116 22.8805 140.827 22.0301 142.049 22.0301C143.106 22.0301 143.916 22.8635 143.966 24.003Z" fill="#0A2615" fill-opacity="0.9"/>
<defs>
<linearGradient id="paint0_linear" x1="4.1215" y1="30.0505" x2="-0.119154" y2="34.1703" gradientUnits="userSpaceOnUse">
<stop stop-color="#06A344"/>
<stop offset="1" stop-color="#29C667"/>
</linearGradient>
<linearGradient id="paint1_linear" x1="4.1215" y1="24.0403" x2="-0.119154" y2="28.1601" gradientUnits="userSpaceOnUse">
<stop stop-color="#06A344"/>
<stop offset="1" stop-color="#29C667"/>
</linearGradient>
<linearGradient id="paint2_linear" x1="19.2337" y1="24.0403" x2="14.993" y2="28.1601" gradientUnits="userSpaceOnUse">
<stop stop-color="#06A344"/>
<stop offset="1" stop-color="#29C667"/>
</linearGradient>
<linearGradient id="paint3_linear" x1="19.2337" y1="18.0303" x2="14.993" y2="22.15" gradientUnits="userSpaceOnUse">
<stop stop-color="#06A344"/>
<stop offset="1" stop-color="#29C667"/>
</linearGradient>
<linearGradient id="paint4_linear" x1="26.4462" y1="24.0403" x2="22.2056" y2="28.1601" gradientUnits="userSpaceOnUse">
<stop stop-color="#06A344"/>
<stop offset="1" stop-color="#29C667"/>
</linearGradient>
<linearGradient id="paint5_linear" x1="26.4462" y1="18.0303" x2="22.2056" y2="22.15" gradientUnits="userSpaceOnUse">
<stop stop-color="#06A344"/>
<stop offset="1" stop-color="#29C667"/>
</linearGradient>
<linearGradient id="paint6_linear" x1="26.4462" y1="12.0203" x2="22.2056" y2="16.14" gradientUnits="userSpaceOnUse">
<stop stop-color="#06A344"/>
<stop offset="1" stop-color="#29C667"/>
</linearGradient>
<linearGradient id="paint7_linear" x1="34.0024" y1="24.0403" x2="29.7617" y2="28.1601" gradientUnits="userSpaceOnUse">
<stop stop-color="#06A344"/>
<stop offset="1" stop-color="#29C667"/>
</linearGradient>
<linearGradient id="paint8_linear" x1="34.0024" y1="18.0303" x2="29.7617" y2="22.15" gradientUnits="userSpaceOnUse">
<stop stop-color="#06A344"/>
<stop offset="1" stop-color="#29C667"/>
</linearGradient>
<linearGradient id="paint9_linear" x1="41.5584" y1="24.0403" x2="37.3177" y2="28.1601" gradientUnits="userSpaceOnUse">
<stop stop-color="#06A344"/>
<stop offset="1" stop-color="#29C667"/>
</linearGradient>
<linearGradient id="paint10_linear" x1="56.3271" y1="24.0403" x2="52.0864" y2="28.1601" gradientUnits="userSpaceOnUse">
<stop stop-color="#06A344"/>
<stop offset="1" stop-color="#29C667"/>
</linearGradient>
<linearGradient id="paint11_linear" x1="63.8832" y1="24.0403" x2="59.6426" y2="28.1601" gradientUnits="userSpaceOnUse">
<stop stop-color="#06A344"/>
<stop offset="1" stop-color="#29C667"/>
</linearGradient>
<linearGradient id="paint12_linear" x1="63.8832" y1="18.0303" x2="59.6426" y2="22.15" gradientUnits="userSpaceOnUse">
<stop stop-color="#06A344"/>
<stop offset="1" stop-color="#29C667"/>
</linearGradient>
<linearGradient id="paint13_linear" x1="41.5584" y1="18.0303" x2="37.3177" y2="22.15" gradientUnits="userSpaceOnUse">
<stop stop-color="#06A344"/>
<stop offset="1" stop-color="#29C667"/>
</linearGradient>
<linearGradient id="paint14_linear" x1="34.0024" y1="12.0203" x2="29.7617" y2="16.14" gradientUnits="userSpaceOnUse">
<stop stop-color="#06A344"/>
<stop offset="1" stop-color="#29C667"/>
</linearGradient>
<linearGradient id="paint15_linear" x1="34.0024" y1="6.01001" x2="29.7617" y2="10.1298" gradientUnits="userSpaceOnUse">
<stop stop-color="#06A344"/>
<stop offset="1" stop-color="#29C667"/>
</linearGradient>
<linearGradient id="paint16_linear" x1="34.0024" y1="0" x2="29.7617" y2="4.11978" gradientUnits="userSpaceOnUse">
<stop stop-color="#06A344"/>
<stop offset="1" stop-color="#29C667"/>
</linearGradient>
<linearGradient id="paint17_linear" x1="11.6775" y1="30.0505" x2="7.43688" y2="34.1703" gradientUnits="userSpaceOnUse">
<stop stop-color="#06A344"/>
<stop offset="1" stop-color="#29C667"/>
</linearGradient>
<linearGradient id="paint18_linear" x1="19.2337" y1="30.0505" x2="14.993" y2="34.1703" gradientUnits="userSpaceOnUse">
<stop stop-color="#06A344"/>
<stop offset="1" stop-color="#29C667"/>
</linearGradient>
<linearGradient id="paint19_linear" x1="26.4462" y1="30.0505" x2="22.2056" y2="34.1703" gradientUnits="userSpaceOnUse">
<stop stop-color="#06A344"/>
<stop offset="1" stop-color="#29C667"/>
</linearGradient>
<linearGradient id="paint20_linear" x1="34.0024" y1="30.0505" x2="29.7617" y2="34.1703" gradientUnits="userSpaceOnUse">
<stop stop-color="#06A344"/>
<stop offset="1" stop-color="#29C667"/>
</linearGradient>
<linearGradient id="paint21_linear" x1="41.5584" y1="30.0505" x2="37.3177" y2="34.1703" gradientUnits="userSpaceOnUse">
<stop stop-color="#06A344"/>
<stop offset="1" stop-color="#29C667"/>
</linearGradient>
<linearGradient id="paint22_linear" x1="48.771" y1="30.0505" x2="44.5304" y2="34.1703" gradientUnits="userSpaceOnUse">
<stop stop-color="#06A344"/>
<stop offset="1" stop-color="#29C667"/>
</linearGradient>
<linearGradient id="paint23_linear" x1="56.3271" y1="30.0505" x2="52.0864" y2="34.1703" gradientUnits="userSpaceOnUse">
<stop stop-color="#06A344"/>
<stop offset="1" stop-color="#29C667"/>
</linearGradient>
<linearGradient id="paint24_linear" x1="63.8832" y1="30.0505" x2="59.6426" y2="34.1703" gradientUnits="userSpaceOnUse">
<stop stop-color="#06A344"/>
<stop offset="1" stop-color="#29C667"/>
</linearGradient>
</defs>
</svg>
